<svg width="14" height="17" viewBox="0 0 14 17" fill="none" xmlns="http://www.w3.org/2000/svg">
<path d="M13.125 4.125H10.5V3.3C10.5 2.42479 10.1313 1.58542 9.47487 0.966548C8.8185 0.347678 7.92826 0 7 0C6.07174 0 5.1815 0.347678 4.52513 0.966548C3.86875 1.58542 3.5 2.42479 3.5 3.3V4.125H0.875C0.642936 4.125 0.420376 4.21192 0.256282 4.36664C0.0921874 4.52135 0 4.7312 0 4.95V14.025C0 14.6814 0.276562 15.3109 0.768845 15.7751C1.26113 16.2392 1.92881 16.5 2.625 16.5H11.375C12.0712 16.5 12.7389 16.2392 13.2312 15.7751C13.7234 15.3109 14 14.6814 14 14.025V4.95C14 4.7312 13.9078 4.52135 13.7437 4.36664C13.5796 4.21192 13.3571 4.125 13.125 4.125ZM5.25 3.3C5.25 2.86239 5.43437 2.44271 5.76256 2.13327C6.09075 1.82384 6.53587 1.65 7 1.65C7.46413 1.65 7.90925 1.82384 8.23744 2.13327C8.56563 2.44271 8.75 2.86239 8.75 3.3V4.125H5.25V3.3ZM12.25 14.025C12.25 14.2438 12.1578 14.4536 11.9937 14.6084C11.8296 14.7631 11.6071 14.85 11.375 14.85H2.625C2.39294 14.85 2.17038 14.7631 2.00628 14.6084C1.84219 14.4536 1.75 14.2438 1.75 14.025V5.775H3.5V6.6C3.5 6.8188 3.59219 7.02865 3.75628 7.18336C3.92038 7.33808 4.14294 7.425 4.375 7.425C4.60706 7.425 4.82962 7.33808 4.99372 7.18336C5.15781 7.02865 5.25 6.8188 5.25 6.6V5.775H8.75V6.6C8.75 6.8188 8.84219 7.02865 9.00628 7.18336C9.17038 7.33808 9.39294 7.425 9.625 7.425C9.85706 7.425 10.0796 7.33808 10.2437 7.18336C10.4078 7.02865 10.5 6.8188 10.5 6.6V5.775H12.25V14.025Z" fill="white"/>
</svg>
