<svg width="15" height="17" viewBox="0 0 15 17" fill="none" xmlns="http://www.w3.org/2000/svg">
<path d="M7.5 0C9.35652 0 11.137 0.737125 12.4497 2.04922C13.7625 3.36131 14.5 5.14088 14.5 6.99646C14.5 9.95291 12.4215 13.1749 8.31846 16.6968C8.09031 16.8927 7.79943 17.0003 7.49866 17C7.19789 16.9997 6.90719 16.8916 6.67939 16.6954L6.408 16.46C2.48656 13.0299 0.5 9.8869 0.5 6.99646C0.5 5.14088 1.2375 3.36131 2.55025 2.04922C3.86301 0.737125 5.64348 0 7.5 0ZM7.5 4.30551C6.78596 4.30551 6.10116 4.58902 5.59625 5.09367C5.09135 5.59833 4.80769 6.28278 4.80769 6.99646C4.80769 7.71014 5.09135 8.3946 5.59625 8.89925C6.10116 9.4039 6.78596 9.68741 7.5 9.68741C8.21404 9.68741 8.89884 9.4039 9.40375 8.89925C9.90866 8.3946 10.1923 7.71014 10.1923 6.99646C10.1923 6.28278 9.90866 5.59833 9.40375 5.09367C8.89884 4.58902 8.21404 4.30551 7.5 4.30551Z" fill="#1B1A1A"/>
</svg>
