<svg width="59" height="11" viewBox="0 0 59 11" fill="none" xmlns="http://www.w3.org/2000/svg">
<path d="M44.5418 8.98919L42.6418 6.40304C43.5522 6.0072 44.5814 5.40025 44.5418 3.97522C44.4759 1.93005 43.0772 1.40227 40.9397 1.46824C40.689 1.48143 39.2376 1.48143 38.9341 1.48143C38.9209 1.48143 38.9077 1.49463 38.8945 1.50783C38.8813 1.54741 38.9473 1.60019 39.0001 1.63977C39.1716 1.8113 39.1848 2.99882 39.1848 3.36827L39.198 8.60655C39.198 8.98919 39.1848 9.45101 39.0661 9.70171C38.9737 9.91282 38.9209 9.91282 38.9341 9.93921C38.9341 9.9524 38.9473 9.9656 38.9605 9.9656H40.5307C40.5439 9.9656 40.5571 9.9524 40.5703 9.93921C40.5834 9.89962 40.5175 9.91282 40.4119 9.63573C40.3327 9.4642 40.3064 8.59335 40.3064 8.59335C40.3064 8.59335 40.3064 3.01201 40.3064 2.45784C40.3064 2.062 40.5043 2.03561 40.9925 2.03561C42.6286 2.00922 43.3543 2.86687 43.3675 4.06759C43.3807 5.40025 42.655 6.0204 41.2036 6.12595L43.4995 9.39823C43.7897 9.84685 44.2911 10.1239 44.8321 10.1371C45.096 10.1371 45.3467 10.1107 45.6106 10.0712C45.6502 10.058 45.6766 10.0184 45.6502 9.99199C45.2016 9.7149 44.8321 9.38503 44.5418 8.98919Z" fill="white"/>
<path d="M25.1589 1.48146C25.1589 1.85091 25.1589 2.35231 25.1589 2.64259C25.1589 2.64259 25.1589 2.68217 25.1853 2.68217C25.2381 2.68217 25.3173 2.58981 25.4756 2.52383C25.6867 2.43147 26.3201 2.40508 26.7027 2.40508H28.0354C28.0354 2.40508 28.0354 7.08918 28.0354 8.59337C28.0354 8.97602 28.0354 9.43783 27.9166 9.68853C27.7979 9.93923 27.7715 9.88645 27.7847 9.92604C27.7979 9.96562 27.8638 9.96562 27.8638 9.96562H29.4076C29.4208 9.96562 29.434 9.95243 29.4472 9.93923C29.4472 9.89965 29.3812 9.89965 29.2889 9.62256C29.2229 9.43783 29.1833 8.94963 29.1833 8.58018C29.1833 7.02321 29.1833 2.8537 29.1833 2.39189H30.516C30.8986 2.39189 31.532 2.41828 31.7431 2.51064C31.9014 2.57662 31.9938 2.66898 32.0334 2.66898C32.0597 2.66898 32.0597 2.62939 32.0597 2.62939C32.0597 2.33911 32.0597 1.83771 32.0597 1.46826L25.1589 1.48146Z" fill="white"/>
<path d="M38.1557 8.67252C38.1029 8.67252 38.0237 8.80447 37.8126 8.87044C37.4959 8.9628 37.1529 9.00239 36.823 9.00239H34.1313V6.03359H36.0313C36.4799 6.02039 36.9418 6.03359 37.3904 6.07318C37.6411 6.12595 37.6411 6.21831 37.6938 6.21831C37.7466 6.21831 37.7202 6.20512 37.7202 6.20512V4.97802C37.7202 4.97802 37.7202 4.95163 37.6938 4.95163C37.6411 4.95163 37.6411 5.04399 37.3904 5.09677C37.2056 5.13635 36.4008 5.12316 36.0313 5.12316H34.1445V2.40506H36.6515C36.9813 2.40506 37.3112 2.44464 37.6411 2.53701C37.7994 2.60298 37.8918 2.69534 37.9314 2.69534C37.9841 2.69534 37.9577 2.65576 37.9577 2.65576V1.49463H32.7854C32.7854 1.49463 32.7458 1.49463 32.7458 1.52102C32.7458 1.54741 32.7854 1.5606 32.8778 1.75852C32.9965 2.00922 33.0097 2.44464 33.0097 2.82729C33.0097 3.52661 33.0097 7.94682 33.0097 8.64613C33.0097 9.02878 33.0097 9.4642 32.8778 9.7149C32.7854 9.91282 32.7458 9.92601 32.7458 9.9656C32.7458 10.0052 32.7854 9.99198 32.7854 9.99198L38.0765 9.97879L38.2084 8.73849C38.182 8.7253 38.1952 8.67252 38.1557 8.67252Z" fill="white"/>
<path d="M58.3831 9.88644L58.1983 9.7281C57.9476 9.50379 57.7233 9.2399 57.5254 8.96281L55.2559 5.65096L57.8025 2.0752C57.9081 1.93006 58.0136 1.79812 58.1456 1.67937L58.2775 1.54742C58.2907 1.53422 58.2907 1.50784 58.2643 1.49464C58.2511 1.49464 58.2511 1.48145 58.2379 1.48145H56.3907C56.3775 1.48145 56.3643 1.49464 56.3511 1.50784C56.4039 1.6002 56.4303 1.69256 56.4303 1.79812C56.4171 1.87728 56.4039 1.94326 56.3907 2.02243C56.3775 2.06201 56.3643 2.11479 56.3379 2.16757C56.3247 2.18076 56.3247 2.20715 56.3115 2.22035C56.1532 2.48424 54.7545 4.63497 54.649 4.72733C54.5566 4.63497 53.1712 2.53702 52.9733 2.20715C52.749 1.66617 52.9601 1.57381 52.9469 1.52103C52.9469 1.50784 52.9337 1.49464 52.9073 1.49464H49.8197C49.8065 1.49464 49.7934 1.50784 49.7802 1.52103C49.767 1.56062 49.9781 1.66617 49.767 2.19396C49.5558 2.53702 48.1704 4.72733 48.0649 4.81969C47.9725 4.72733 46.4683 2.47104 46.31 2.20715C46.0857 1.66617 46.2968 1.57381 46.2836 1.52103C46.2836 1.50784 46.2704 1.49464 46.2572 1.49464H44.3308C44.3176 1.49464 44.2912 1.50783 44.3044 1.53422V1.54742L44.4627 1.67937C44.6474 1.8377 44.8058 2.00923 44.9377 2.20715L47.4447 5.80929V5.96763V8.15794C47.4447 8.54058 47.4183 9.45102 47.2996 9.70172C47.1808 9.95241 47.1544 9.89963 47.1544 9.93922C47.1544 9.9788 47.194 9.96561 47.194 9.96561H48.751C48.751 9.96561 48.7906 9.96561 48.7906 9.93922C48.7906 9.91283 48.7642 9.93922 48.6454 9.70172C48.5399 9.46421 48.5135 8.52739 48.5135 8.15794V6.19194V5.80929C48.5135 5.80929 50.8357 2.19396 51.2316 1.78492C51.7857 2.35229 53.9629 5.71693 53.9629 5.71693L51.5482 9.20032C51.3767 9.45102 51.1656 9.66213 50.9281 9.84685L50.8753 9.88644C50.8621 9.89963 50.8621 9.93922 50.8885 9.95241C50.9017 9.95241 50.9017 9.96561 50.9149 9.96561H52.7358C52.749 9.96561 52.7622 9.95241 52.7753 9.93922C52.7226 9.86005 52.6962 9.78088 52.6962 9.68852C52.7094 9.54338 52.7622 9.41143 52.8413 9.27949C52.9997 9.01559 54.4511 6.7857 54.5434 6.69333C54.6358 6.7857 56.1004 9.01559 56.2587 9.27949C56.3115 9.37185 56.3643 9.4774 56.3907 9.59616C56.4171 9.71491 56.3907 9.84686 56.3115 9.95241C56.3115 9.96561 56.3247 9.9788 56.3379 9.9788H58.3567C58.3831 9.9788 58.3963 9.95241 58.3831 9.93922C58.3963 9.89963 58.3831 9.88644 58.3831 9.88644Z" fill="white"/>
<path d="M8.09822 9.86016C8.03225 9.78099 7.96627 9.70183 7.91349 9.62266C7.76835 9.37196 7.45168 8.83098 7.31973 8.5275L4.25857 1.6267C4.08704 1.25725 4.08704 1.25725 3.90232 1.6267L0.841159 8.5275C0.682823 8.91014 0.484903 9.29279 0.260594 9.64904C0.181426 9.7546 0.102259 9.84697 0.00989599 9.93933C-0.00329866 9.95252 -0.00329866 9.96572 0.00989599 9.97891H0.0230904H1.59325C1.60645 9.97891 1.61964 9.96572 1.61964 9.95252C1.54048 9.83377 1.51409 9.67543 1.55367 9.53029V9.5171C1.55367 9.49071 1.56686 9.47751 1.56686 9.45112C1.58006 9.38515 1.60645 9.33237 1.63284 9.2664C1.65923 9.21362 3.98149 3.97534 3.98149 3.97534C4.04746 3.8302 4.06065 3.8302 4.12663 3.97534C4.12663 3.97534 6.31694 8.88375 6.47528 9.2532C6.47528 9.2664 6.47528 9.2664 6.48847 9.2796C6.52805 9.35876 6.55444 9.45113 6.56764 9.53029V9.54349C6.56764 9.55668 6.56764 9.56988 6.56764 9.58307C6.58083 9.63585 6.58083 9.67543 6.58083 9.72821C6.56764 9.88655 6.48847 9.93933 6.50167 9.96572C6.50167 9.97891 6.51486 9.99211 6.52805 9.99211H8.08502C8.11141 9.99211 8.12461 9.97891 8.12461 9.95252C8.12461 9.93933 8.12461 9.93933 8.11141 9.92613C8.1378 9.89974 8.12461 9.87335 8.09822 9.86016Z" fill="white"/>
<path d="M23.4436 3.39487L24.9742 0.663574H23.4436V3.39487Z" fill="white"/>
<path d="M14.2601 8.98919L12.3601 6.40304C13.2705 6.0072 14.2997 5.40025 14.2601 3.97522C14.1941 1.93005 12.7955 1.40227 10.658 1.46824C10.4073 1.48143 8.95584 1.48143 8.65236 1.48143C8.63917 1.48143 8.62597 1.49463 8.62597 1.50783C8.61278 1.54741 8.67875 1.60019 8.73153 1.63977C8.91626 1.8113 8.91626 2.99882 8.91626 3.36827L8.92945 8.60655C8.92945 8.98919 8.91626 9.45101 8.7975 9.70171C8.70514 9.91282 8.65236 9.91282 8.66556 9.93921C8.66556 9.9524 8.67875 9.9656 8.70514 9.9656H10.2753C10.2885 9.9656 10.3017 9.9524 10.3017 9.93921C10.3149 9.89962 10.2489 9.91282 10.1434 9.63573C10.0642 9.4642 10.0378 8.59335 10.0378 8.59335C10.0378 8.59335 10.0378 3.01201 10.0378 2.45784C10.0378 2.062 10.2357 2.03561 10.7239 2.03561C12.3601 2.00922 13.0858 2.86687 13.099 4.06759C13.1122 5.40025 12.3865 6.0204 10.935 6.12595L13.2309 9.39823C13.5212 9.84685 14.0226 10.1371 14.5636 10.1371C14.8275 10.1371 15.0782 10.1107 15.3421 10.0712C15.3816 10.058 15.408 10.0184 15.3816 9.99199C14.9198 9.72809 14.5504 9.38503 14.2601 8.98919Z" fill="white"/>
<path d="M22.586 8.343C21.8339 9.13467 20.6068 9.39857 19.5644 9.38537C17.5324 9.38537 16.1074 7.56451 16.0942 5.73046C16.0678 3.43459 17.5456 2.03595 19.7227 2.03595C20.5276 2.03595 21.8867 2.55054 22.3881 3.3818C22.4408 3.51375 22.4936 3.65889 22.5332 3.80404C22.5332 3.81723 22.5596 3.84362 22.5992 3.84362C22.6124 3.84362 22.6388 3.83042 22.6388 3.80404V1.78525C22.6388 1.75887 22.6124 1.73247 22.5728 1.73247C22.4408 1.73247 22.1901 1.71928 22.1505 1.71928C21.8735 1.69289 20.8707 1.36302 19.7623 1.34983C16.8859 1.31024 14.9859 2.93319 14.9331 5.74365C14.8803 8.35619 16.7935 10.1507 19.6963 10.1507C20.5804 10.1375 21.4644 10.0319 22.3221 9.83399L22.6651 8.39577C22.6783 8.36938 22.6651 8.3298 22.6388 8.31661C22.6256 8.30341 22.5992 8.31661 22.586 8.343Z" fill="white"/>
</svg>
