<svg width="228" height="67" viewBox="0 0 228 67" fill="none" xmlns="http://www.w3.org/2000/svg">
<path d="M3.72244 33.5C3.72244 46.5303 14.1117 58.3233 31 67C11.8844 58.5524 0 46.6678 0 33.5C0 20.3322 11.8844 8.44756 31 0C14.1117 8.66142 3.72244 20.4697 3.72244 33.5Z" fill="white"/>
<path d="M39.096 19.692H63.032L62.168 25.1H45.464L44.92 28.62H61.208L60.344 34.06H44.056L42.552 43.5H35.32L39.096 19.692ZM71.5405 29.772H82.6125C85.0125 29.772 85.9405 28.46 85.9405 27.18C85.9405 25.964 85.2365 25.1 83.2845 25.1H72.3085L71.5405 29.772ZM70.7405 35.052L69.3965 43.5H62.1325L65.9085 19.692H84.7885C91.7645 19.692 93.7485 22.348 93.7485 25.452C93.7485 29.132 90.6125 30.796 88.5005 31.404C90.6765 32.076 92.5645 33.58 92.0845 36.652L91.4445 40.652C91.1885 42.348 91.3805 42.956 91.4765 43.34L91.4445 43.5H84.0525C83.9245 43.244 83.8285 42.892 83.9885 41.9L84.4045 39.276C84.8525 36.46 83.7965 35.052 80.1165 35.052H70.7405ZM114.1 33.772L110.836 24.844L105.3 33.772H114.1ZM117.684 43.5L116.084 39.148H101.972L99.2838 43.5H91.7637L106.804 19.692H116.18L125.236 43.5H117.684ZM126.133 43.5L129.909 19.692H140.021L145.781 34.508L155.893 19.692H165.973L162.197 43.5H155.061L157.685 27.02L146.261 43.5H142.389L135.765 27.02L133.141 43.5H126.133ZM169.346 19.692H193.73L192.866 25.1H175.65L175.106 28.62H191.938L191.074 34.06H174.242L173.602 37.964H191.106L190.242 43.5H165.57L169.346 19.692Z" fill="white"/>
<path d="M228 33.5C228 46.6552 216.115 58.5409 197 67C213.878 58.2961 224.263 46.5176 224.263 33.5C224.263 20.4824 213.878 8.68858 197 0C216.115 8.45913 228 20.3447 228 33.5Z" fill="white"/>
</svg>
