<svg width="93" height="19" viewBox="0 0 93 19" fill="none" xmlns="http://www.w3.org/2000/svg">
<path fill-rule="evenodd" clip-rule="evenodd" d="M18.0664 9.0576H17.4982C16.4854 9.0576 15.6578 9.80592 15.6578 10.801C15.6578 11.61 15.9131 12.5443 16.9877 12.5443C17.9388 12.5443 18.1282 11.796 18.1282 11.0477V9.17895C18.1323 9.18299 18.194 9.0576 18.0664 9.0576ZM46.957 18.1506H44.9602C43.5274 17.9807 42.284 17.4468 42.284 16.1565C42.284 15.2221 43.3627 14.5385 44.2479 14.4131C44.2479 14.4131 44.5032 14.3524 44.2479 14.3524C43.9309 14.2877 42.2181 14.1664 41.6499 14.2877C41.6499 14.2877 41.5223 14.2877 41.4605 14.1623C41.3988 14.0369 41.0817 13.1673 41.0159 13.1025C40.9541 12.9771 41.0776 12.9165 41.0776 12.9165C42.3457 12.7304 43.4862 12.1075 43.9926 11.9214C44.3096 11.8607 43.9926 11.796 43.9926 11.796C42.2181 11.4846 40.4436 10.2994 40.4436 8.24457C40.4436 5.31603 42.918 4.00951 45.2607 4.00951C46.3394 4.00951 46.9735 4.19558 47.5417 4.2603C47.5417 4.2603 47.6034 4.32097 47.6693 4.19962C47.6693 4.01356 47.8587 3.51603 47.8587 3.51603C48.114 2.76771 48.4927 2.45625 49.6332 2.45625C49.8885 2.45625 50.1396 2.45625 50.329 2.51693C50.329 2.51693 50.4567 2.45625 50.4567 2.64232C50.3908 2.70299 50.012 4.19962 50.012 4.2603C49.9502 4.44636 49.8844 4.32097 49.8844 4.32097C49.695 4.19558 49.6291 4.1349 49.1886 4.19558C48.9333 4.19558 48.8098 4.38165 48.8098 4.63243C48.8098 5.06929 50.8396 5.69221 50.8396 8.0585C50.8396 11.2338 47.8587 11.9214 45.2607 12.5443C45.2607 12.5443 45.0055 12.605 45.2607 12.605C46.9735 12.7911 50.5225 13.2279 50.5225 15.4082C50.5267 17.2446 48.4392 17.9524 46.957 18.1506ZM22.126 13.1066H22.6324C22.7601 13.1066 22.7601 13.232 22.7601 13.232V14.227C22.7601 14.4131 22.5707 14.3524 22.5707 14.3524H18.5152C18.5152 14.3524 18.4534 14.3524 18.4534 14.227C18.3917 13.9763 18.264 13.7295 18.264 13.5434C18.2023 13.2927 18.0746 13.5434 18.0746 13.5434C17.2512 14.1664 16.3001 14.6639 15.1596 14.6639C13.2575 14.6639 11.8 13.4828 11.8 11.5493C11.8 9.183 13.3234 7.87648 15.2214 7.87648L18.1364 7.75108V7.62569V7.31423C18.1364 6.50524 17.6917 6.12906 16.7407 6.12906C15.5343 6.12906 14.9661 6.56592 14.3938 7.24951C14.3938 7.24951 14.3938 7.31018 14.2662 7.31018C14.1386 7.24951 13.1257 6.87333 13.1257 6.87333C13.1257 6.87333 12.9981 6.87333 13.064 6.74794C13.1257 6.62254 14.3938 3.63333 14.3938 3.63333C14.3938 3.63333 14.3938 3.50794 14.4556 3.57266C14.645 3.63333 15.4067 3.88412 15.5961 3.88412C15.7237 3.94479 15.6578 4.07019 15.6578 4.07019L15.5302 4.32097C15.4684 4.57176 15.592 4.44636 15.592 4.44636C16.4154 4.1349 17.2388 4.00951 18.0664 4.00951C20.475 4.00951 22.0601 5.00457 22.0601 7.43558V12.9165C22.0601 12.9205 22.0601 13.1066 22.126 13.1066ZM22.3771 4.75783C24.024 4.32097 25.4198 3.2612 26.1156 1.76861C26.1156 1.76861 26.1156 1.70794 26.2432 1.70794C26.3709 1.70794 27.1943 1.894 27.3219 1.894C27.4496 1.95468 27.3837 2.0194 27.3837 2.0194C27.3219 2.51692 27.2561 3.07917 27.2561 3.51603V4.26434C27.2561 4.38973 27.3837 4.32501 27.3837 4.32501H29.0965C29.2241 4.32501 29.1582 4.45041 29.1582 4.45041C29.1582 4.45041 28.903 5.69625 28.903 5.82164C28.8412 5.94704 28.7753 5.94704 28.7753 5.94704H27.3796C27.2519 5.94704 27.252 6.00772 27.252 6.00772V11.8001C27.252 12.4837 27.8242 12.6091 28.1413 12.6091C28.4583 12.6091 28.5201 12.6091 28.7753 12.4837C28.7753 12.4837 28.903 12.3583 28.903 12.4837C28.9647 12.6091 29.2817 13.418 29.3476 13.5434C29.4094 13.6041 29.2859 13.6688 29.2859 13.6688C27.956 14.6032 27.8284 14.6639 26.0538 14.6639C24.0899 14.6639 23.39 13.7295 23.39 11.9861V6.00772C23.39 6.00772 23.39 5.94704 23.2624 5.94704H22.373C22.373 5.94704 22.3113 5.94704 22.3113 5.82164V4.88726C22.3154 4.82254 22.3771 4.75783 22.3771 4.75783ZM51.2842 9.30839C51.2842 6.06839 53.8822 4.01356 57.3077 4.01356C60.7292 4.01356 63.393 6.06839 63.393 9.30839C63.393 12.6697 60.7292 14.6639 57.3077 14.6639C53.8863 14.6639 51.2842 12.6697 51.2842 9.30839ZM55.2162 7.87243C55.2162 9.36906 55.8502 13.1025 58.0035 13.1025C59.144 13.1025 59.461 11.9174 59.461 10.7969C59.461 9.3003 58.827 5.56682 56.6078 5.56682C55.2162 5.57086 55.2162 7.12816 55.2162 7.87243ZM75.44 14.3524H70.1164C70.1164 14.3524 70.0547 14.3524 70.0547 14.2877V13.2279C70.0547 13.1025 70.1823 13.1025 70.1823 13.1025H70.8164C70.8822 13.1025 70.8822 13.0419 70.8822 13.0419V7.3749C70.8822 6.75198 70.31 6.5012 69.7418 6.5012C69.046 6.5012 68.5395 6.81266 68.029 7.24951C68.029 7.24951 67.9672 7.31018 67.9672 7.3749V13.0419C67.9672 13.0419 67.9672 13.1025 68.029 13.1025H68.7289C68.7289 13.1025 68.7907 13.1025 68.7907 13.2279V14.2877C68.7907 14.3524 68.7289 14.3524 68.7289 14.3524H63.4054C63.4054 14.3524 63.3436 14.4131 63.3436 14.227V13.232C63.3436 13.1066 63.4054 13.1066 63.4054 13.1066H63.9735C64.1012 13.1066 64.0394 13.0459 64.0394 13.0459V6.37985C64.0394 6.37985 64.1012 6.25446 63.9735 6.25446L63.4054 6.44052C63.4054 6.44052 63.3436 6.5012 63.3436 6.37985V5.32007C63.3436 5.19468 63.4054 5.2594 63.4054 5.2594L67.9055 4.07423C67.9055 4.07423 68.0331 4.01356 68.0331 4.1349V5.56682C68.0331 5.75288 68.099 5.62749 68.099 5.62749C69.1777 4.8185 70.2564 4.00951 71.7098 4.00951C74.4354 4.00951 74.8183 5.81356 74.8183 6.93805V13.0419C74.8183 13.0419 74.7566 13.1025 74.8801 13.1025H75.4524C75.4524 13.1025 75.5141 13.1025 75.5141 13.2279V14.223C75.5018 14.4131 75.44 14.3524 75.44 14.3524ZM80.8295 4.07423L76.3293 5.2594C76.3293 5.2594 76.2676 5.2594 76.2676 5.38479V6.37985C76.2676 6.50524 76.3952 6.44052 76.3952 6.44052C76.3952 6.44052 76.7122 6.37985 76.9675 6.31513C77.0951 6.31513 77.0293 6.44052 77.0293 6.5012V13.0419C77.0293 13.0419 77.0951 13.1025 76.9675 13.1025H76.3335C76.3335 13.1025 76.2058 13.1025 76.2058 13.2279V14.2877C76.2058 14.4131 76.3335 14.3524 76.3335 14.3524H81.5953C81.7229 14.3524 81.657 14.227 81.657 14.227V13.232C81.657 13.1066 81.5294 13.1066 81.5294 13.1066H81.023C80.8953 13.1066 80.9612 13.0459 80.9612 13.0459V4.1349C80.953 4.01356 80.8295 4.07423 80.8295 4.07423ZM79.2443 0.959624C80.1337 0.959624 81.1465 1.21041 81.1465 2.26614C81.1465 3.51198 79.4379 4.00951 78.3591 4.00951C77.4698 4.00951 76.9016 3.57266 76.9016 2.70299C76.8975 1.70794 78.2933 0.959624 79.2443 0.959624ZM35.6923 9.0576H35.1859C34.1071 9.0576 33.3496 9.80592 33.3496 10.801C33.3496 11.61 33.6048 12.5443 34.6177 12.5443C35.6305 12.5443 35.824 11.796 35.824 11.0477V9.17895C35.8199 9.18299 35.8199 9.0576 35.6923 9.0576ZM39.8136 13.1066H40.2583C40.4477 13.1066 40.4477 13.232 40.4477 13.232V14.227C40.4477 14.4131 40.2583 14.3524 40.2583 14.3524H36.2028C36.2028 14.3524 36.1411 14.3524 36.0752 14.227C36.0134 13.9763 35.9475 13.7295 35.9475 13.5434C35.8858 13.2927 35.7581 13.5434 35.7581 13.5434C34.8688 14.1664 33.9836 14.6639 32.8432 14.6639C30.8792 14.6639 29.4217 13.4828 29.4217 11.5493C29.4217 9.183 31.0069 7.81176 32.909 7.81176L35.7623 7.75108C35.7623 7.75108 35.824 7.75109 35.824 7.62569V7.31423C35.824 6.50524 35.3794 6.12906 34.4283 6.12906C33.2219 6.12906 32.6538 6.56592 32.0815 7.24951C32.0815 7.24951 32.0197 7.31018 31.9538 7.24951C31.8262 7.24951 30.7475 6.87738 30.7475 6.87738C30.7475 6.87738 30.6857 6.87737 30.7475 6.75198C30.8092 6.62659 32.0156 3.63737 32.0156 3.63737C32.0156 3.63737 32.0156 3.51198 32.1432 3.5767C32.2709 3.63737 33.0943 3.88816 33.2219 3.88816C33.3496 3.94884 33.2837 4.07423 33.2837 4.07423C33.2837 4.07423 33.2837 4.19962 33.2219 4.32501C33.0943 4.5758 33.2837 4.45041 33.2837 4.45041C34.1071 4.13895 34.9306 4.01356 35.7581 4.01356C38.1667 4.01356 39.7519 5.00861 39.7519 7.43962V12.9205C39.7477 12.9205 39.686 13.1066 39.8136 13.1066ZM43.9967 6.69131C43.9967 7.81176 44.6308 10.8657 46.2159 10.8657C47.0394 10.8657 47.3564 10.4936 47.3564 9.49445C47.3564 8.37401 46.6606 5.32007 45.0754 5.32007C44.3138 5.32007 43.9967 5.69221 43.9967 6.69131ZM45.6436 14.85C45.4542 15.036 45.3266 15.7237 45.3266 16.1565C45.3266 16.654 45.5819 17.2163 46.2159 17.2163C46.7223 17.2163 47.0394 16.9655 47.0394 16.4679C47.0394 15.5336 46.4671 15.2221 45.7713 14.7852C45.7713 14.7893 45.7095 14.7893 45.6436 14.85ZM87.9276 9.0576H87.4212C86.3424 9.0576 85.5807 9.80592 85.5807 10.801C85.5807 11.61 85.836 12.5443 86.8489 12.5443C87.8617 12.5443 88.0552 11.796 88.0552 11.0477V9.17895C88.0552 9.18299 88.0552 9.0576 87.9276 9.0576ZM92.0489 13.1066H92.5553C92.683 13.1066 92.683 13.232 92.683 13.232V14.227C92.683 14.4131 92.4936 14.3524 92.4936 14.3524H88.4381C88.4381 14.3524 88.3764 14.3524 88.3105 14.227C88.2487 13.9763 88.1828 13.7295 88.1828 13.5434C88.1211 13.2927 87.9935 13.5434 87.9935 13.5434C87.1041 14.1664 86.2189 14.6639 85.0785 14.6639C83.1145 14.6639 81.657 13.4828 81.657 11.5493C81.657 9.183 83.2422 7.81176 85.1443 7.81176L87.9976 7.75108C87.9976 7.75108 88.0634 7.75109 88.0634 7.62569V7.31423C88.0634 6.50524 87.6188 6.12906 86.6677 6.12906C85.4655 6.12906 84.8932 6.56592 84.3209 7.24951C84.3209 7.24951 84.2591 7.31018 84.1933 7.24951C84.0656 7.24951 83.0528 6.87738 83.0528 6.87738C83.0528 6.87738 82.9251 6.87737 82.991 6.75198C83.0528 6.62659 84.2591 3.63737 84.2591 3.63737C84.2591 3.63737 84.2591 3.51198 84.3868 3.5767C84.5144 3.63737 85.3378 3.88816 85.4655 3.88816C85.5931 3.94884 85.5931 4.07423 85.5931 4.07423L85.4655 4.32501C85.3378 4.5758 85.5272 4.45041 85.5272 4.45041C86.3507 4.13895 87.1741 4.01356 87.9976 4.01356C90.4061 4.01356 91.9913 5.00861 91.9913 7.43962V12.9205C91.9872 12.9205 91.9872 13.1066 92.0489 13.1066ZM4.69364 6.44052V11.4846C4.69364 12.3583 5.01067 13.1025 6.02351 13.1025C7.29162 13.1025 7.86391 12.3542 7.86391 10.0486C7.86391 6.3758 5.96175 6.18569 5.3277 6.18569L4.82128 6.24636C4.81716 6.25445 4.69364 6.31917 4.69364 6.44052ZM4.7554 4.94794C5.70648 4.38569 6.40229 4.01356 7.35337 4.01356C9.82783 4.01356 11.7917 6.00771 11.7917 8.93221C11.7917 11.796 9.95546 14.6598 6.7852 14.6598C6.15114 14.6598 5.3277 14.5992 4.7554 14.2877C4.7554 14.2877 4.69364 14.2877 4.69364 14.3524V16.1565C4.69364 16.1565 4.69364 16.2819 4.82128 16.2819H5.96175C5.96175 16.2819 6.08938 16.2819 6.08938 16.4073V17.4023C6.08938 17.467 5.96175 17.5277 5.96175 17.5277H0.189393C0.189393 17.5277 0 17.5277 0 17.4023V17.3942V17.3861V17.374V17.3619V17.3497V17.3376V17.3255V17.3133V17.3012V17.285V17.2688V17.2527V17.2365V17.2203V17.2041V17.1879V17.1718V17.1556V17.1394V17.1232V17.107V17.0909V17.0706V17.0545V17.0342V17.018V16.9978V16.9816V16.9614V16.9412V16.921V16.9048V16.8846V16.8643V16.8441V16.8279V16.8077V16.7875V16.7713V16.7551V16.7389V16.7228V16.7066V16.6904V16.6742V16.658V16.6419V16.6257V16.6095V16.5933V16.5772V16.561V16.5448V16.5286V16.5124V16.5003V16.4882V16.476V16.4639V16.4518V16.4396V16.4315V16.4234V16.4154C0 16.29 0.127634 16.29 0.127634 16.29H0.634054C0.761688 16.29 0.761688 16.1646 0.761688 16.1646V6.38794C0.761688 6.26254 0.634054 6.32726 0.634054 6.32726L0.127634 6.45266C0.127634 6.45266 0 6.45265 0 6.32726V6.31917V6.31109V6.30299V6.29491V6.28681V6.27468V6.26254V6.25041V6.23828V6.22614V6.20996V6.19378V6.1776V6.16142V6.14524V6.12906V6.11288V6.0967V6.08052V6.06434V6.04412V6.02389V6.00367V5.98344V5.96322V5.94299V5.92277V5.90254V5.88232V5.86209V5.84187V5.82164V5.80142V5.78119V5.76097V5.74075V5.72052V5.7003V5.68007V5.65985V5.63962V5.6194V5.59917V5.57895V5.55872V5.54255V5.52637V5.51019V5.494V5.47782V5.46165V5.44547V5.42929V5.41715V5.40502V5.39288V5.38075V5.36861V5.35648V5.34839V5.3403V5.33221V5.32412V5.31603C0 5.19063 0.127634 5.19063 0.127634 5.19063L4.56601 4.07019C4.56601 4.07019 4.69364 4.00951 4.69364 4.13086V4.87917C4.69364 5.00861 4.7554 4.94794 4.7554 4.94794ZM90.2085 1.52187C90.2085 0.773557 90.8426 0.150635 91.6043 0.150635C92.366 0.150635 93 0.773557 93 1.52187C93 2.33086 92.366 2.95378 91.6043 2.95378C90.8426 2.95378 90.2085 2.33086 90.2085 1.52187ZM92.8106 1.52187C92.8106 0.89895 92.3042 0.336701 91.6043 0.336701C90.9043 0.336701 90.3362 0.89895 90.3362 1.52187C90.3362 2.20547 90.9084 2.76771 91.6043 2.76771C92.3001 2.76771 92.8106 2.20547 92.8106 1.52187ZM92.3001 2.33086H92.0448L91.6001 1.58255H91.2831V2.33086H91.0937V0.773557H91.7278C91.8554 0.773557 92.0448 0.773557 92.1066 0.834231C92.2342 0.894905 92.296 1.08502 92.296 1.20636C92.296 1.45715 92.1066 1.5785 91.7895 1.5785L92.3001 2.33086ZM91.5425 1.45715C91.7978 1.45715 92.1148 1.51782 92.1148 1.20636C92.1148 0.955578 91.9254 0.894905 91.736 0.894905H91.2914V1.45715H91.5425Z" fill="white"/>
</svg>
