<svg width="114" height="10" viewBox="0 0 114 10" fill="none" xmlns="http://www.w3.org/2000/svg">
<path d="M8.11607 9.12631H3.14315C2.37808 9.12631 1.74053 8.90739 1.20498 8.44523C0.669439 7.98307 0.388916 7.42361 0.388916 6.69388V0.150635H2.17407V6.69388C2.17407 7.22901 2.50559 7.49658 3.14315 7.49658H8.70261L8.11607 9.12631ZM37.571 1.78037H29.2063C28.9768 1.78037 28.7473 1.85334 28.5433 2.02361C28.3393 2.19388 28.2373 2.38847 28.2373 2.60739V3.04523C28.2373 3.58036 28.5688 3.84794 29.2063 3.84794H34.8168C35.5819 3.84794 36.2194 4.06685 36.7295 4.50469C37.2905 4.96685 37.5455 5.55064 37.5455 6.25604V6.7182C37.5455 7.39928 37.265 7.95874 36.704 8.44523C36.1429 8.90739 35.5054 9.15063 34.7913 9.15063H26.4521V7.54523H34.8168C35.0463 7.54523 35.2759 7.47226 35.4799 7.30198C35.6839 7.13171 35.7859 6.96145 35.7859 6.7182V6.25604C35.7859 5.72091 35.4544 5.45333 34.8168 5.45333H29.2318C28.4668 5.45333 27.8292 5.23442 27.2937 4.77226C26.7581 4.33442 26.4776 3.75063 26.4776 3.04523V2.60739C26.4776 1.92631 26.7581 1.36685 27.3192 0.90469C27.8802 0.442528 28.5178 0.199286 29.2318 0.199286H37.571V1.78037ZM50.5261 3.06955C50.5261 3.79928 50.2711 4.38307 49.7356 4.82091C49.2 5.25875 48.5625 5.47766 47.7974 5.47766H41.3709V3.82361H47.7974C48.435 3.82361 48.7665 3.58036 48.7665 3.06955V2.58307C48.7665 2.04793 48.435 1.75604 47.7974 1.75604H40.8353V9.10198H39.0502V0.150635H47.7974C48.5625 0.150635 49.2 0.369551 49.7356 0.831713C50.2711 1.29388 50.5261 1.87766 50.5261 2.58307V3.06955ZM62.8692 6.7182C62.8692 7.42361 62.5886 8.00739 62.0531 8.46956C61.5176 8.93172 60.88 9.15063 60.1149 9.15063H54.1984C53.4334 9.15063 52.7958 8.93172 52.2603 8.46956C51.7247 8.00739 51.4442 7.44793 51.4442 6.7182V2.58307C51.4442 1.92631 51.7247 1.34253 52.2858 0.880365C52.8468 0.418202 53.4844 0.174961 54.1984 0.174961H60.1404C60.8545 0.174961 61.4921 0.418202 62.0531 0.880365C62.6141 1.34253 62.8947 1.92631 62.8947 2.58307L62.8692 6.7182ZM61.1095 6.7182V2.60739C61.1095 2.38847 61.0075 2.19388 60.8035 2.04793C60.5995 1.87766 60.37 1.80469 60.1404 1.80469H54.1984C53.9689 1.80469 53.7394 1.87766 53.5354 2.04793C53.3314 2.2182 53.2294 2.4128 53.2294 2.60739V6.7182C53.2294 7.25334 53.5609 7.5209 54.1984 7.5209H60.1404C60.778 7.49658 61.1095 7.25334 61.1095 6.7182ZM75.9263 9.12631H74.1411V6.20739C74.1411 5.96415 74.0391 5.79388 73.8606 5.67226C73.6566 5.55064 73.4526 5.47766 73.172 5.47766H66.7455V3.82361H73.172C73.8096 3.82361 74.1411 3.58036 74.1411 3.06955V2.58307C74.1411 2.04793 73.8096 1.75604 73.172 1.75604H66.21V9.10198H64.4248V0.150635H73.172C73.9371 0.150635 74.5747 0.369551 75.1102 0.831713C75.6457 1.29388 75.9008 1.85334 75.9008 2.58307V3.06955C75.9008 3.65334 75.6712 4.18847 75.2122 4.65063C75.6712 5.1128 75.9008 5.64793 75.9008 6.23172L75.9263 9.12631ZM87.5807 1.78037H82.9904V9.12631H81.2052V1.78037H76.6403V0.174961H87.5807V1.78037ZM90.284 9.12631H88.4988V0.174961H90.284V9.12631ZM102.908 0.174961L101.122 6.7182C100.689 8.32361 99.7708 9.12631 98.3682 9.12631H95.971C94.5683 9.12631 93.6503 8.32361 93.2167 6.7182L91.4571 0.174961H93.3442L95.0274 6.40199C95.2314 7.13172 95.6139 7.5209 96.2005 7.5209H98.0621C98.6742 7.5209 99.0567 7.15604 99.2607 6.40199L100.944 0.174961H102.908ZM101.938 9.12631L103.724 2.58307C104.157 0.977662 105.075 0.174961 106.478 0.174961H108.875C110.278 0.174961 111.196 0.977662 111.629 2.58307L113.389 9.12631H111.502L109.819 2.89928C109.615 2.16955 109.232 1.78037 108.646 1.78037H106.733C106.121 1.78037 105.738 2.14523 105.534 2.89928L103.851 9.12631H101.938ZM9.41668 9.12631L11.2018 2.58307C11.6354 0.977662 12.5534 0.174961 13.9561 0.174961H16.3533C17.7559 0.174961 18.674 0.977662 19.1075 2.58307L20.8671 9.12631H18.98L17.2968 2.89928C17.0928 2.16955 16.7103 1.78037 16.1237 1.78037H14.2621C13.65 1.78037 13.2675 2.14523 13.0635 2.89928L11.3803 9.12631H9.41668Z" fill="white"/>
</svg>
